<svg width="69" height="68" viewBox="0 0 69 68" fill="none" xmlns="http://www.w3.org/2000/svg">
<path d="M67.6585 14.7946L41.2961 0.318701C40.9 0.101286 40.4197 0.101286 40.0236 0.318701L30.0871 5.77472C29.8774 5.82998 29.6817 5.93533 29.5196 6.08664L13.6617 14.7946C13.2388 15.0265 12.9759 15.4706 12.9759 15.9534V33.4613C10.3008 34.2979 7.84936 35.7733 5.81104 37.8121C0.498067 43.1246 -0.856513 51.2273 2.44034 57.9744C2.76052 58.6302 3.5522 58.9024 4.20806 58.5817C4.86443 58.261 5.13607 57.4693 4.81589 56.8134C2.01481 51.0806 3.16591 44.1962 7.68049 39.6816C10.5038 36.8583 14.2572 35.3033 18.2496 35.3033C22.2421 35.3033 25.9955 36.8583 28.8188 39.6816C31.6415 42.5044 33.1965 46.2577 33.1965 50.2502C33.1965 54.2427 31.6415 57.9961 28.8182 60.8193C24.3037 65.3339 17.4192 66.485 11.6864 63.6839C11.0305 63.3632 10.2389 63.6354 9.91868 64.2913C9.59798 64.9476 9.86962 65.7393 10.526 66.0595C12.9837 67.2607 15.6205 67.8443 18.2383 67.8443C22.805 67.8437 27.3108 66.0662 30.6882 62.6888C32.237 61.14 33.4609 59.3532 34.3269 57.4109L40.0236 60.5389C40.2219 60.6479 40.4409 60.7021 40.6599 60.7021C40.8788 60.7021 41.0983 60.6479 41.2961 60.5389L67.6585 46.0636C68.0815 45.8312 68.3443 45.387 68.3443 44.9047V35.717C68.3443 34.9868 67.7525 34.395 67.0223 34.395C66.292 34.395 65.7002 34.9868 65.7002 35.717V44.1223L41.986 57.144V31.2091L49.8124 26.9114V33.7241C49.8124 34.192 50.0593 34.6248 50.4616 34.8623C50.6692 34.9847 50.9016 35.0462 51.1345 35.0462C51.3534 35.0462 51.5729 34.9919 51.7717 34.8825L57.4209 31.7731C57.8433 31.5407 58.1052 31.0971 58.1052 30.6152V22.3576L65.7002 18.1875V25.1411C65.7002 25.8714 66.292 26.4632 67.0223 26.4632C67.7525 26.4632 68.3443 25.8714 68.3443 25.1411V15.9534C68.3443 15.4711 68.0815 15.0265 67.6585 14.7946V14.7946ZM40.6599 2.98552L64.2754 15.9534L56.826 20.044L33.2104 7.07611L40.6599 2.98552ZM40.6599 28.9209L17.0443 15.9534L24.7669 11.7126L48.383 24.68L40.6599 28.9209ZM51.1293 23.172L27.5138 10.2046L30.4636 8.58459L54.0796 21.552L51.1293 23.172ZM30.6882 37.8121C27.3655 34.4895 22.9481 32.6598 18.2496 32.6598C17.3609 32.6598 16.4829 32.7253 15.62 32.8539V18.1875L39.3425 31.2138V57.1486L35.225 54.8877C35.6304 53.3952 35.8401 51.8387 35.8401 50.2502C35.8401 45.5518 34.0104 41.1343 30.6882 37.8121V37.8121ZM55.4616 29.8339L52.4565 31.488V25.4598L55.4616 23.8098V29.8339Z" fill="#70908B"/>
</svg>
